<svg fill="#80cbc4" xmlns="http://www.w3.org/2000/svg" xmlns:xlink="http://www.w3.org/1999/xlink" version="1.1" viewBox="0 0 96 96" x="0px" y="0px"><path d="M82 85c-1.1 0-2-0.896-2-2v-41.2c0-16.484-16.9-28.8-32-28.8-15.104 0-32 12.316-32 28.8v17.2c0 1.104-0.896 2-2 2s-2-0.896-2-2v-17.2c0-17.472 16.824-32.8 36-32.8s36 15.328 36 32.8v41.2c0 1.104-0.9 2-2 2z" fill="{{COLOR}}"/><path d="M14 87h-12c-1.104 0-2-0.896-2-2v-28c0-1.104 0.896-2 2-2h12c1.104 0 2 0.896 2 2v28c0 1.104-0.896 2-2 2zM4 83h8v-24h-8v24z" fill="{{COLOR}}"/><path d="M94 87h-12c-1.1 0-2-0.896-2-2v-28c0-1.104 0.9-2 2-2h12c1.1 0 2 0.896 2 2v28c0 1.104-0.9 2-2 2zM84 83h8v-24h-8v24z" fill="{{COLOR}}"/></svg>
