<svg width="114" height="109" viewBox="0 0 114 109" fill="none" xmlns="http://www.w3.org/2000/svg">
<path d="M110.662 108.435L110.109 107.906C109.745 107.558 109.541 107.087 109.541 106.595C109.541 106.103 109.745 105.631 110.109 105.283C110.473 104.935 110.967 104.74 111.482 104.74C111.997 104.74 112.491 104.935 112.855 105.283L113.408 105.812C113.593 105.983 113.741 106.188 113.843 106.414C113.944 106.64 113.998 106.883 114 107.13C114.002 107.376 113.953 107.62 113.855 107.848C113.758 108.076 113.614 108.283 113.431 108.457C113.249 108.631 113.032 108.769 112.794 108.862C112.555 108.955 112.3 109.002 112.042 109C111.784 108.998 111.53 108.947 111.293 108.85C111.056 108.753 110.842 108.612 110.662 108.435ZM92.2477 103.943L85.0584 97.0645C84.6958 96.7177 84.224 96.4942 83.7155 96.4284C83.207 96.3627 82.69 96.4584 82.2439 96.7007C72.551 101.928 61.3317 103.978 50.3036 102.535C39.2755 101.092 29.0462 96.2361 21.1818 88.7111C13.3173 81.186 8.25106 71.4063 6.75851 60.8689C5.26595 50.3315 7.42938 39.6172 12.9176 30.3662C13.1709 29.9392 13.2708 29.4448 13.2021 28.9584C13.1334 28.4721 12.9 28.0206 12.5373 27.673L4.53404 20.0128C4.09357 19.5909 3.84622 19.0193 3.84622 18.4235C3.84622 17.8277 4.09357 17.2561 4.53404 16.8342L4.56791 16.8025C4.78584 16.5939 5.0447 16.4284 5.32965 16.3155C5.61461 16.2026 5.92008 16.1445 6.22858 16.1445C6.53708 16.1445 6.84254 16.2026 7.1275 16.3155C7.41246 16.4284 7.67131 16.5939 7.88925 16.8025L14.6941 23.3139C14.9229 23.5327 15.1968 23.7036 15.4986 23.8157C15.8003 23.9277 16.1231 23.9785 16.4465 23.9647C16.7699 23.9509 17.0868 23.8729 17.3769 23.7356C17.667 23.5984 17.9239 23.4049 18.1313 23.1674L18.1753 23.1169C18.5514 22.6865 18.7456 22.1373 18.7196 21.5772C18.6937 21.017 18.4495 20.4864 18.0351 20.0894L6.65102 9.19502C6.21055 8.77314 5.9632 8.20161 5.9632 7.60576C5.9632 7.00991 6.21055 6.43838 6.65102 6.0165L6.68489 5.98415C6.90286 5.77563 7.16173 5.61021 7.44668 5.49735C7.73164 5.38448 8.03709 5.32639 8.34556 5.32639C8.65404 5.32639 8.95949 5.38448 9.24444 5.49735C9.52939 5.61021 9.78826 5.77563 10.0062 5.98415L21.3748 16.8655C21.7929 17.2659 22.353 17.5021 22.9445 17.5273C23.536 17.5525 24.1158 17.365 24.5696 17.0017L24.6059 16.9722C24.8547 16.7732 25.0574 16.527 25.2012 16.2492C25.345 15.9713 25.4267 15.6679 25.441 15.3583C25.4554 15.0486 25.4021 14.7395 25.2846 14.4506C25.1671 14.1617 24.988 13.8993 24.7586 13.6801L20.4147 9.52365C19.9741 9.10184 19.7266 8.53029 19.7266 7.93439C19.7266 7.3385 19.9741 6.76694 20.4147 6.34514L20.448 6.31278C20.6659 6.1042 20.9247 5.93872 21.2097 5.82581C21.4947 5.7129 21.8001 5.65479 22.1086 5.65479C22.4171 5.65479 22.7226 5.7129 23.0076 5.82581C23.2925 5.93872 23.5514 6.1042 23.7693 6.31278L29.3116 11.6158C29.674 11.9627 30.1458 12.1862 30.6542 12.252C31.1626 12.3177 31.6796 12.222 32.1255 11.9796C41.8191 6.74994 53.0397 4.69943 64.0694 6.14207C75.0991 7.58471 85.3299 12.441 93.1951 19.9673C101.06 27.4936 106.127 37.2751 107.618 47.814C109.11 58.353 106.944 69.0685 101.454 78.3198C101.2 78.7467 101.1 79.2413 101.169 79.7277C101.238 80.2141 101.472 80.6656 101.834 81.013L106.031 85.0287C106.471 85.4506 106.719 86.0221 106.719 86.618C106.719 87.2138 106.471 87.7854 106.031 88.2073L105.997 88.2396C105.779 88.4483 105.52 88.6139 105.235 88.7269C104.951 88.8399 104.645 88.8981 104.336 88.8981C104.028 88.8981 103.722 88.8399 103.437 88.7269C103.152 88.6139 102.894 88.4483 102.676 88.2396L99.689 85.3812C99.4603 85.1609 99.186 84.9884 98.8837 84.875C98.5813 84.7615 98.2575 84.7095 97.933 84.7222C97.6084 84.7349 97.2901 84.8121 96.9985 84.9488C96.7069 85.0855 96.4484 85.2788 96.2393 85.5163L96.209 85.5509C95.8283 85.9814 95.6302 86.5326 95.6538 87.0957C95.6773 87.6588 95.9207 88.1931 96.3362 88.5932L107.752 99.5171C108.192 99.9389 108.44 100.51 108.44 101.106C108.44 101.702 108.192 102.274 107.752 102.696L107.717 102.728C107.499 102.937 107.241 103.102 106.956 103.215C106.671 103.328 106.365 103.386 106.057 103.386C105.748 103.386 105.443 103.328 105.158 103.215C104.873 103.102 104.614 102.937 104.396 102.728L92.9803 91.8041C92.5628 91.4067 92.0042 91.1736 91.4153 91.151C90.8263 91.1284 90.25 91.3179 89.8004 91.6821L89.7636 91.7116C89.5154 91.912 89.3135 92.1596 89.1707 92.4385C89.0279 92.7174 88.9473 93.0216 88.934 93.3319C88.9207 93.6421 88.975 93.9516 89.0934 94.2407C89.2119 94.5299 89.392 94.7924 89.6222 95.0116L95.6012 100.733C96.0419 101.155 96.2895 101.726 96.2895 102.322C96.2895 102.918 96.0419 103.49 95.6012 103.911L95.5679 103.943C95.35 104.152 95.0912 104.317 94.8062 104.43C94.5213 104.543 94.2158 104.602 93.9072 104.602C93.5987 104.602 93.2932 104.543 93.0082 104.43C92.7232 104.317 92.4656 104.151 92.2477 103.943ZM66.4922 79.2989L71.8117 84.3891C72.0296 84.5976 72.2885 84.7631 72.5734 84.876C72.8584 84.9889 73.1639 85.0471 73.4724 85.0471C73.7809 85.0471 74.0863 84.9889 74.3713 84.876C74.6562 84.7631 74.9151 84.5976 75.133 84.3891L75.1669 84.3567C75.6075 83.9349 75.855 83.3633 75.855 82.7675C75.855 82.1716 75.6075 81.6 75.1669 81.1782L72.2193 78.3578C71.9781 78.127 71.7924 77.8488 71.675 77.5425C71.5577 77.2363 71.5116 76.9092 71.5399 76.5842C71.5681 76.2592 71.6701 75.944 71.8387 75.6604C72.0074 75.3768 72.2386 75.1317 72.5164 74.9421L72.5562 74.9154C73.0077 74.606 73.5597 74.4601 74.1134 74.5036C74.6672 74.5472 75.1868 74.7774 75.5792 75.1532L83.6634 82.8889C83.8813 83.0975 84.1401 83.263 84.4251 83.3759C84.7101 83.4888 85.0155 83.5469 85.324 83.5469C85.6325 83.5469 85.938 83.4888 86.2229 83.3759C86.5079 83.263 86.7668 83.0975 86.9847 82.8889L87.0186 82.8566C87.459 82.4347 87.7064 81.8632 87.7064 81.2673C87.7064 80.6715 87.459 80.0999 87.0186 79.678L78.9344 71.9423C78.5407 71.5662 78.2997 71.0687 78.2542 70.5385C78.2087 70.0084 78.3618 69.48 78.6861 69.0476C78.695 69.0351 78.7045 69.0226 78.714 69.0101C78.9116 68.7445 79.1675 68.5233 79.4639 68.362C79.7603 68.2006 80.0899 68.103 80.4299 68.076C80.7698 68.049 81.1118 68.0932 81.432 68.2055C81.7522 68.3178 82.0429 68.4956 82.2837 68.7263L87.6906 73.9011C87.9085 74.1097 88.1673 74.2752 88.4523 74.3881C88.7373 74.501 89.0427 74.5591 89.3512 74.5591C89.6597 74.5591 89.9652 74.501 90.2501 74.3881C90.5351 74.2752 90.794 74.1097 91.0119 73.9011L91.0458 73.8687C91.4862 73.4469 91.7336 72.8753 91.7336 72.2795C91.7336 71.6836 91.4862 71.1121 91.0458 70.6902L83.2659 63.2457C82.9723 62.9627 82.7623 62.6105 82.6572 62.2249C82.5521 61.8394 82.5557 61.4341 82.6675 61.0502C83.9117 56.7467 83.94 52.2051 82.7495 47.8878C81.5591 43.5704 79.1924 39.6315 75.8904 36.4719C72.5885 33.3123 68.4691 31.0449 63.9517 29.9005C59.4343 28.7561 54.6801 28.7756 50.1731 29.957C49.7719 30.0643 49.348 30.0679 48.9449 29.9674C48.5417 29.867 48.1737 29.6662 47.8784 29.3854L41.0218 22.824C40.804 22.6154 40.5451 22.4498 40.2602 22.3369C39.9752 22.2239 39.6697 22.1658 39.3612 22.1658C39.0527 22.1658 38.7472 22.2239 38.4622 22.3369C38.1772 22.4498 37.9184 22.6154 37.7005 22.824L37.6672 22.857C37.2266 23.2788 36.9792 23.8503 36.9792 24.4462C36.9792 25.0421 37.2266 25.6137 37.6672 26.0355L42.1478 30.3225C42.389 30.5536 42.5748 30.8321 42.6921 31.1387C42.8095 31.4452 42.8556 31.7725 42.8274 32.0978C42.7991 32.423 42.6971 32.7385 42.5285 33.0224C42.3598 33.3063 42.1285 33.5517 41.8507 33.7417L41.8115 33.7684C41.3596 34.0775 40.8074 34.2233 40.2534 34.1795C39.6995 34.1357 39.1798 33.9053 38.7872 33.5294L29.1482 24.3038C28.9303 24.0952 28.6714 23.9297 28.3865 23.8168C28.1015 23.7039 27.796 23.6458 27.4875 23.6458C27.179 23.6458 26.8736 23.7039 26.5886 23.8168C26.3037 23.9297 26.0448 24.0952 25.8269 24.3038L25.793 24.3361C25.3525 24.758 25.1052 25.3295 25.1052 25.9254C25.1052 26.5212 25.3525 27.0927 25.793 27.5146L35.4344 36.7391C35.8276 37.1155 36.0685 37.6128 36.1143 38.1427C36.1601 38.6727 36.0078 39.201 35.6845 39.6339L35.656 39.6713C35.4581 39.9369 35.2019 40.1581 34.9052 40.3194C34.6086 40.4807 34.2788 40.5783 33.9386 40.6053C33.5985 40.6323 33.2563 40.5881 32.9359 40.4758C32.6154 40.3635 32.3245 40.1858 32.0833 39.9551L29.248 37.242C29.0302 37.0333 28.7713 36.8677 28.4864 36.7547C28.2014 36.6417 27.8959 36.5835 27.5874 36.5835C27.2788 36.5835 26.9733 36.6417 26.6883 36.7547C26.4034 36.8677 26.1445 37.0333 25.9267 37.242L25.8928 37.2738C25.4522 37.6956 25.2047 38.2672 25.2047 38.8631C25.2047 39.459 25.4522 40.0305 25.8928 40.4523L31.1036 45.4386C31.3972 45.7216 31.6072 46.0737 31.7123 46.4593C31.8174 46.8449 31.8138 47.2502 31.7019 47.6341C30.4581 51.9376 30.4302 56.4791 31.621 60.7963C32.8117 65.1135 35.1786 69.0522 38.4807 72.2116C41.7829 75.3709 45.9023 77.638 50.4197 78.7822C54.9372 79.9263 59.6913 79.9066 64.1982 78.7251C64.4051 78.6706 64.6187 78.6429 64.8333 78.6428C65.1415 78.6423 65.4468 78.7 65.7316 78.8126C66.0164 78.9252 66.2745 79.0905 66.4922 79.2989ZM1.12179 3.69448L0.568633 3.16605C0.204543 2.81824 0 2.34651 0 1.85463C0 1.36275 0.204543 0.891019 0.568633 0.543209C0.932722 0.195398 1.42653 0 1.94143 0C2.45633 0 2.95015 0.195398 3.31423 0.543209L3.8674 1.07164C4.22146 1.42141 4.41748 1.89007 4.41321 2.37662C4.40894 2.86316 4.20472 3.32862 3.84456 3.67267C3.48441 4.01672 2.99717 4.21181 2.48785 4.21589C1.97854 4.21997 1.48794 4.03271 1.12179 3.69448Z" fill="#F3FA2F"/>
</svg>
