<svg fill="{{COLOR}}" xmlns="http://www.w3.org/2000/svg" xmlns:xlink="http://www.w3.org/1999/xlink" xmlns:serif="http://www.serif.com/" viewBox="0 0 24 24" version="1.1" xml:space="preserve" style="" x="0px" y="0px" fill-rule="evenodd" clip-rule="evenodd" stroke-linejoin="round" stroke-miterlimit="2"><g><path d="M5.75,12.5l-0,-1c-0,-0.967 -0.783,-1.75 -1.75,-1.75l-1,0c-0.967,0 -1.75,0.783 -1.75,1.75l0,1c0,0.967 0.783,1.75 1.75,1.75l1,-0c0.967,-0 1.75,-0.783 1.75,-1.75Z"/><path d="M16.75,15c-0,-0.966 -0.784,-1.75 -1.75,-1.75l-6,-0c-0.966,0 -1.75,0.784 -1.75,1.75l0,6c0,0.966 0.784,1.75 1.75,1.75l6,0c0.966,-0 1.75,-0.784 1.75,-1.75l-0,-6Z"/><path d="M10.25,10.75l0,-2.75c0,-1.519 1.231,-2.75 2.75,-2.75l3.75,0l-0,-2.25c-0,-0.966 -0.784,-1.75 -1.75,-1.75l-6,0c-0.966,0 -1.75,0.784 -1.75,1.75l0,6c0,0.966 0.784,1.75 1.75,1.75l1.25,-0Z"/><path d="M11.25,12.25l3.75,0c1.519,0 2.75,1.231 2.75,2.75l-0,2.75l3.25,-0c0.967,-0 1.75,-0.783 1.75,-1.75l-0,-8c-0,-0.967 -0.783,-1.75 -1.75,-1.75l-8,0c-0.967,0 -1.75,0.783 -1.75,1.75l0,4.25Z"/></g></svg>